<svg width="186" height="55" viewBox="0 0 186 55" fill="none" xmlns="http://www.w3.org/2000/svg">
<path d="M184.766 48.5066C184.766 49.9047 184.209 51.2455 183.218 52.2336C182.226 53.2217 180.882 53.7761 179.481 53.7745H6.51897C3.59984 53.7776 1.23073 51.4194 1.22693 48.5069V6.49859C1.23073 3.58499 3.59872 1.22485 6.51897 1.22409H179.48C180.882 1.224 182.226 1.77971 183.218 2.76892C184.209 3.75813 184.766 5.09977 184.765 6.49859L184.766 48.5066Z" fill="white"/>
<path d="M179.481 55H6.51896C2.92312 54.9992 0.00665009 52.0942 0 48.5066V6.50031C0.00512808 2.91093 2.92137 0.00302825 6.51896 0H179.48C183.077 0.00453901 185.992 2.91156 185.999 6.50031V48.5066C186.001 52.0884 183.072 55 179.481 55H179.481Z" fill="#A6A6A6"/>
<path d="M184.766 48.5066C184.766 49.9047 184.209 51.2455 183.218 52.2336C182.226 53.2217 180.882 53.7761 179.481 53.7745H6.51897C3.59984 53.7776 1.23073 51.4194 1.22693 48.5069V6.49859C1.23073 3.58499 3.59872 1.22485 6.51897 1.22409H179.48C180.882 1.224 182.226 1.77971 183.218 2.76892C184.209 3.75813 184.766 5.09977 184.765 6.49859L184.766 48.5066Z" fill="black"/>
<path fill-rule="evenodd" clip-rule="evenodd" d="M38.9212 8.55078C39.1499 10.626 38.3256 12.6713 37.1208 14.1745C35.8635 15.6547 33.8523 16.7863 31.8935 16.6406C31.6372 14.6437 32.6295 12.5201 33.7407 11.2245C34.9966 9.75391 37.1772 8.62778 38.9212 8.55078ZM45.3338 20.5231C45.1146 20.6536 41.4924 22.8111 41.5321 27.2106C41.5789 32.5222 46.1917 34.2798 46.2468 34.299C46.2193 34.4231 45.5242 36.8352 43.7944 39.282C42.3494 41.4373 40.8359 43.5459 38.4317 43.583C37.289 43.6091 36.5172 43.2816 35.7131 42.9403C34.8741 42.5842 33.9999 42.2132 32.6323 42.2132C31.1831 42.2132 30.2704 42.5962 29.3902 42.9656C28.6286 43.2852 27.8914 43.5946 26.8522 43.6367C24.5623 43.7205 22.8132 41.337 21.3159 39.1995C18.3234 34.8384 15.9936 26.9094 19.1173 21.5136C20.6308 18.8678 23.3909 17.1634 26.341 17.1181C27.6401 17.0914 28.886 17.5909 29.9782 18.0289C30.8133 18.3637 31.5586 18.6625 32.169 18.6625C32.7054 18.6625 33.4299 18.3756 34.2743 18.0413C35.605 17.5143 37.2334 16.8695 38.8922 17.0438C40.0268 17.0768 43.2553 17.4907 45.3382 20.5205L45.3338 20.5231Z" fill="white"/>
<path d="M179.481 0H86.8372L123.124 55H179.481C183.077 54.997 185.993 52.0909 186 48.5027V6.50004C185.994 2.91107 183.078 0.00378551 179.481 0Z" fill="url(#paint0_linear_186_2)"/>
<path fill-rule="evenodd" clip-rule="evenodd" d="M97.9993 18.4755H96.553V9.01279H97.9993V18.4755ZM62.3245 18.5553C61.5068 18.5553 60.7997 18.5154 60.211 18.448V9.59888C61.0343 9.47201 61.8662 9.40949 62.6993 9.41188C66.07 9.41188 67.6221 11.0663 67.6221 13.7634C67.6221 16.8744 65.7886 18.5553 62.3245 18.5553ZM119.734 41.9987C120.819 41.0207 121.365 39.754 121.365 38.1958C121.365 36.9318 120.993 35.8714 120.244 35.0213C119.501 34.1712 118.34 33.4314 116.761 32.7958C115.473 32.2898 114.583 31.8179 114.095 31.3847C113.532 30.9145 113.25 30.3146 113.25 29.5928C113.25 28.9379 113.498 28.3865 113.987 27.9338C114.569 27.4278 115.382 27.1734 116.419 27.1734C117.731 27.1734 118.904 27.4539 119.944 28.0149L120.681 25.6249C119.577 25.0456 118.186 24.7552 116.517 24.7552C114.648 24.7552 113.145 25.2354 112.012 26.1955C110.879 27.1569 110.311 28.3862 110.311 29.8884C110.311 32.1881 111.918 33.936 115.13 35.1313C116.311 35.5644 117.152 36.0364 117.661 36.5424C118.167 37.0501 118.425 37.6729 118.425 38.4172C118.425 39.2477 118.113 39.9135 117.497 40.4113C116.882 40.908 116.021 41.1579 114.912 41.1579C113.371 41.1579 111.955 40.7787 110.666 40.0166L109.987 42.4607C111.181 43.2214 112.763 43.6006 114.737 43.6006C116.874 43.6006 118.541 43.0657 119.734 41.9987ZM73.9784 43.3297H70.8478L69.1328 37.9534H63.1722L61.5385 43.3297H58.4908L64.3977 25.0264H68.0454L73.9784 43.3297ZM68.6161 35.6981L67.0651 30.9186C66.9011 30.4305 66.5922 29.2803 66.1403 27.4704H66.0852C65.9029 28.249 65.6122 29.3989 65.2137 30.9183L63.6892 35.6981H68.6161ZM87.306 41.8897C88.5288 40.5873 89.1395 38.8132 89.1395 36.5685C89.1395 34.5593 88.617 32.9388 87.5761 31.7054C86.5341 30.4741 85.2314 29.8595 83.6711 29.8595C81.6747 29.8595 80.1874 30.6477 79.2071 32.2238H79.152L78.988 30.1318H76.4033C76.475 31.6144 76.5122 33.0598 76.5122 34.4699V48.6815H79.451V41.7564C80.2163 43.0052 81.4763 43.6284 83.2282 43.6284C84.8508 43.6284 86.2114 43.0492 87.306 41.8897ZM86.1453 36.6757C86.1453 35.3911 85.8559 34.332 85.2738 33.4974C84.6387 32.6294 83.7851 32.1946 82.7156 32.1946C81.9902 32.1946 81.3313 32.4369 80.743 32.9141C80.153 33.3953 79.7668 34.0244 79.5863 34.8026C79.5056 35.0938 79.4597 35.3934 79.4496 35.6954V37.8971C79.4496 38.8561 79.7448 39.666 80.3348 40.3288C80.9249 40.9888 81.6912 41.3205 82.634 41.3205C83.741 41.3205 84.6028 40.8928 85.219 40.0441C85.8363 39.1927 86.1453 38.0703 86.1453 36.6757ZM102.521 41.8897C103.744 40.5873 104.354 38.8132 104.354 36.5685C104.354 34.5593 103.83 32.9388 102.791 31.7054C101.746 30.4741 100.443 29.8595 98.8842 29.8595C96.8868 29.8595 95.3991 30.6477 94.4205 32.2238H94.3654L94.2015 30.1318H91.6168C91.6884 31.6144 91.7256 33.0598 91.7256 34.4699V48.6815H94.6644V41.7564C95.4298 43.0052 96.6897 43.6284 98.4416 43.6284C100.066 43.6284 101.425 43.0492 102.521 41.8897ZM101.359 36.6757C101.359 35.3911 101.068 34.332 100.486 33.4974C99.8504 32.6294 98.9999 32.1946 97.9301 32.1946C97.205 32.1946 96.5461 32.4369 95.9547 32.9141C95.3647 33.3953 94.9799 34.0244 94.7998 34.8026C94.7102 35.1656 94.662 35.4613 94.662 35.6954V37.8971C94.662 38.8561 94.9582 39.666 95.5455 40.3288C96.1355 40.9877 96.9019 41.3205 97.8474 41.3205C98.9558 41.3205 99.8176 40.8928 100.432 40.0441C101.05 39.1927 101.359 38.0703 101.359 36.6757ZM131.107 32.3324H127.867V38.7403C127.867 40.37 128.438 41.183 129.582 41.183C130.108 41.183 130.543 41.139 130.888 41.0469L130.969 43.2737C130.391 43.4895 129.628 43.5982 128.684 43.5982C127.523 43.5982 126.616 43.2448 125.961 42.5377C125.309 41.8306 124.981 40.6467 124.981 38.9799V32.3266H123.051V30.1263H124.981V27.7097L127.867 26.8404V30.1266H131.107V32.3324ZM143.952 41.6189C145.113 40.3164 145.695 38.6506 145.695 36.6224V36.6221C145.695 34.6473 145.133 33.0378 144.006 31.7917C142.826 30.5071 141.267 29.8633 139.326 29.8633C137.312 29.8633 135.71 30.5154 134.52 31.8192C133.333 33.1217 132.738 34.7968 132.738 36.8421C132.738 38.7967 133.314 40.4171 134.467 41.7027C135.619 42.9859 137.164 43.6284 139.108 43.6284C141.122 43.6284 142.738 42.9598 143.952 41.6189ZM142.648 36.6895C142.648 35.4805 142.386 34.4438 141.861 33.5758C141.245 32.5277 140.363 32.0038 139.22 32.0038C138.042 32.0038 137.139 32.5277 136.525 33.5758C135.998 34.4438 135.736 35.4984 135.736 36.7445C135.736 37.9548 135.998 38.9947 136.525 39.8599C137.16 40.908 138.046 41.4319 139.195 41.4319C140.318 41.4319 141.2 40.897 141.836 39.8334C142.377 38.9452 142.648 37.9015 142.648 36.6895ZM154.325 32.6294C154.636 32.6284 154.946 32.6555 155.252 32.7106L155.249 29.9131C155.031 29.8788 154.786 29.8595 154.514 29.8595C153.748 29.8606 153.003 30.1085 152.39 30.5663C151.72 31.0905 151.232 31.7903 150.92 32.6583H150.839L150.732 30.1331H148.172C148.231 31.5173 148.26 32.9026 148.257 34.288V43.33H151.196V36.4049C151.196 35.3557 151.442 34.486 151.93 33.7985C152.492 33.0172 153.292 32.6294 154.325 32.6294ZM168.396 36.1065C168.403 36.5522 168.368 36.9976 168.289 37.4364H159.472C159.505 38.7403 159.932 39.7389 160.751 40.4264C161.494 41.04 162.455 41.348 163.635 41.348C164.94 41.348 166.131 41.1417 167.202 40.7251L167.663 42.7591C166.411 43.3039 164.933 43.5748 163.228 43.5748C161.177 43.5748 159.567 42.9722 158.395 41.7701C157.226 40.567 156.64 38.9493 156.64 36.9232C156.64 34.9346 157.185 33.2774 158.275 31.9557C159.417 30.5443 160.959 29.8389 162.9 29.8389C164.806 29.8389 166.25 30.5443 167.23 31.9557C168.006 33.0736 168.396 34.4603 168.396 36.1065H168.396ZM165.023 33.0914C165.421 33.7257 165.614 34.4754 165.593 35.3458L159.473 35.343C159.563 34.4589 159.854 33.6968 160.343 33.0626C160.938 32.2651 161.721 31.8677 162.682 31.8677C163.731 31.8677 164.514 32.2747 165.023 33.0914ZM61.6546 10.6401C61.9756 10.5738 62.3631 10.5463 62.8178 10.5463C64.9588 10.5463 66.0962 11.7085 66.0962 13.8033C66.0962 16.1521 64.839 17.4068 62.6304 17.4068C62.1616 17.4068 61.8282 17.3944 61.6546 17.3669V10.6401ZM72.4594 18.6227C70.5598 18.6227 69.3284 17.2074 69.3284 15.2859C69.3284 13.2835 70.5857 11.8556 72.5669 11.8556C74.439 11.8556 75.6976 13.2038 75.6976 15.18C75.6976 17.2074 74.4004 18.6227 72.4594 18.6227ZM70.8023 15.2446C70.8023 13.883 71.4709 12.9095 72.5146 12.9095V12.9092C73.5307 12.9092 74.1989 13.8971 74.1989 15.2171C74.1989 16.5127 73.5162 17.5539 72.5004 17.5539C71.4847 17.5539 70.8023 16.5801 70.8023 15.2446ZM86.53 11.9893L84.4964 18.4755H83.1717L82.3295 15.6588C82.12 14.9698 81.9457 14.2706 81.807 13.564H81.7794C81.6733 14.2708 81.4722 14.9793 81.2583 15.6588L80.3624 18.4755H79.0239L77.1105 11.989H78.595L79.3311 15.0728C79.5051 15.8073 79.6511 16.5003 79.7723 17.1552H79.7999C79.906 16.609 80.0796 15.927 80.3348 15.0865L81.2583 11.9907H82.4356L83.3194 15.0205C83.5243 15.7247 83.6985 16.4374 83.8416 17.1566H83.8802C83.9742 16.4897 84.1213 15.7812 84.3214 15.0205L85.1112 11.9907L86.53 11.9893ZM92.5705 18.4755H94.0151L94.0165 14.5912C94.0165 12.8968 93.1206 11.8553 91.7559 11.8553C90.8721 11.8553 90.0836 12.2956 89.6951 12.9886H89.6548L89.5873 11.9876H88.3163C88.3562 12.6545 88.37 13.2694 88.37 13.8428V18.4755H89.815V14.6176C89.815 13.7634 90.4036 13.0288 91.2596 13.0288C92.1296 13.0288 92.5705 13.6039 92.5705 14.751V18.4755ZM100.136 15.2859C100.136 17.2074 101.368 18.6227 103.267 18.6227C105.206 18.6227 106.505 17.2074 106.503 15.18C106.503 13.2038 105.246 11.8556 103.373 11.8556C101.393 11.8556 100.136 13.2835 100.136 15.2859ZM103.32 12.9095C102.277 12.9095 101.608 13.883 101.608 15.2446C101.608 16.5801 102.292 17.5539 103.305 17.5539C104.322 17.5539 105.003 16.5127 105.003 15.2171C105.005 13.8971 104.337 12.9092 103.32 12.9092V12.9095ZM112.095 17.7286L112.199 18.4755L113.502 18.4769C113.437 18.0902 113.408 17.5828 113.408 16.9283V14.5393C113.408 12.7497 112.551 11.8556 110.853 11.8556C109.972 11.8556 109.222 12.0429 108.621 12.4169L108.914 13.3643C109.409 13.0439 109.972 12.8831 110.613 12.8831C111.509 12.8831 111.962 13.311 111.962 14.1649V14.2845C109.554 14.2845 108.163 15.1126 108.163 16.7135C108.163 17.8083 108.99 18.6223 110.155 18.6223C110.971 18.6223 111.615 18.3298 112.056 17.7286H112.095ZM112.001 15.2446C110.396 15.2446 109.591 15.6327 109.591 16.5526C109.591 17.2332 110.006 17.5663 110.582 17.5663C111.317 17.5663 112.001 17.0067 112.001 16.246V15.2446ZM120.356 17.434L120.424 18.4755L121.71 18.4752C121.671 17.9413 121.656 17.3542 121.656 16.7269V9.01313H120.21V12.7359H120.181C119.834 12.1474 119.217 11.8542 118.347 11.8542C116.704 11.8542 115.501 13.2835 115.501 15.3123C115.501 17.2473 116.662 18.6227 118.229 18.6227C119.204 18.6227 119.901 18.2212 120.316 17.434H120.356ZM120.21 14.6589C120.21 13.751 119.607 12.9766 118.688 12.9766C117.617 12.9766 116.962 13.9243 116.962 15.2584C116.962 16.5663 117.642 17.4618 118.659 17.4618C119.567 17.4618 120.21 16.6736 120.21 15.7396L120.21 14.6589ZM127.695 15.2859C127.695 17.2074 128.926 18.6223 130.825 18.6223V18.6227C132.767 18.6227 134.064 17.2074 134.063 15.18C134.063 13.2038 132.806 11.8556 130.932 11.8556C128.952 11.8556 127.695 13.2835 127.695 15.2859ZM130.878 12.9092C129.836 12.9092 129.167 13.883 129.167 15.2446C129.167 16.5801 129.85 17.5539 130.864 17.5539C131.882 17.5539 132.563 16.5127 132.563 15.2171C132.566 13.8971 131.897 12.9092 130.878 12.9092ZM140.386 18.4755H141.832V14.5898C141.832 12.8951 140.935 11.8542 139.57 11.8542C138.688 11.8542 137.898 12.2956 137.51 12.9886H137.47L137.403 11.9876H136.132C136.172 12.6545 136.185 13.2694 136.185 13.8428V18.4755H137.632V14.6176C137.632 13.7634 138.219 13.0288 139.075 13.0288C139.945 13.0288 140.386 13.6039 140.386 14.751V18.4755ZM151.552 13.0701H149.963V16.2198C149.963 17.0218 150.241 17.4219 150.803 17.4219C151.058 17.4219 151.272 17.3944 151.444 17.3546L151.484 18.4494C151.205 18.5567 150.83 18.6103 150.364 18.6103C149.225 18.6103 148.544 17.9829 148.544 16.3408V13.0701H147.596V11.9893H148.544V10.8006L149.963 10.3727V11.9876H151.552L151.552 13.0701ZM157.757 18.4755H159.2V14.6176C159.2 12.9216 158.359 11.8542 156.983 11.8542C156.143 11.8542 155.483 12.2024 155.029 12.9092H155V9.01279H153.556V18.4755H155V14.5654C155 13.5379 155.697 13.0302 156.446 13.0302C157.317 13.0302 157.757 13.6177 157.757 14.7785V18.4755ZM167.036 15.5788H162.7C162.728 16.807 163.542 17.5003 164.749 17.5003C165.39 17.5003 165.98 17.3931 166.501 17.1937L166.725 18.195C166.11 18.4618 165.387 18.5952 164.545 18.5952C162.511 18.5952 161.308 17.313 161.308 15.3261C161.308 13.3372 162.54 11.8419 164.382 11.8419C166.043 11.8419 167.085 13.0701 167.085 14.9253C167.095 15.1443 167.078 15.3636 167.036 15.5788ZM164.281 12.8432C165.205 12.8432 165.711 13.5503 165.711 14.5516H162.701C162.795 13.564 163.451 12.8432 164.281 12.8432Z" fill="white"/>
<defs>
<linearGradient id="paint0_linear_186_2" x1="315.231" y1="55.146" x2="315.231" y2="-143.211" gradientUnits="userSpaceOnUse">
<stop stop-color="#1A1A1A" stop-opacity="0.1"/>
<stop offset="0.123" stop-color="#212121" stop-opacity="0.151"/>
<stop offset="0.308" stop-color="#353535" stop-opacity="0.227"/>
<stop offset="0.532" stop-color="#575757" stop-opacity="0.318"/>
<stop offset="0.783" stop-color="#858585" stop-opacity="0.421"/>
<stop offset="1" stop-color="#B3B3B3" stop-opacity="0.51"/>
</linearGradient>
</defs>
</svg>
