<svg width="41" height="45" viewBox="0 0 41 45" fill="none" xmlns="http://www.w3.org/2000/svg">
<path d="M20.7335 44.0454C31.6503 44.0454 40.5001 35.0911 40.5001 24.0454C40.5001 12.9997 31.6503 4.04541 20.7335 4.04541C9.81663 4.04541 0.966797 12.9997 0.966797 24.0454C0.966797 35.0911 9.81663 44.0454 20.7335 44.0454Z" fill="url(#paint0_radial_80_239)"/>
<g style="mix-blend-mode:screen">
<path d="M20.6444 5.51819C10.5095 5.51819 2.28833 13.8364 2.28833 24.0909C2.28833 28.3546 3.70794 32.2818 6.09791 35.4091C4.54353 32.6818 3.66301 29.5273 3.66301 26.1546C3.66301 15.9 11.8841 7.58183 22.0191 7.58183C27.9491 7.58183 33.2142 10.4273 36.5655 14.8364C33.3939 9.27273 27.4549 5.51819 20.6444 5.51819Z" fill="url(#paint1_radial_80_239)"/>
</g>
<path d="M20.7335 34.4365C17.5079 34.4365 14.462 33.1728 12.1619 30.8819C11.8385 30.5547 11.8295 30.0274 12.1529 29.7001C12.4764 29.3728 12.9975 29.3638 13.321 29.691C15.3066 31.6728 17.9482 32.7638 20.7335 32.7638C23.5278 32.7638 26.1603 31.6728 28.146 29.691C28.4694 29.3638 28.9906 29.3728 29.314 29.7001C29.6375 30.0274 29.6285 30.5547 29.305 30.8819C27.0139 33.1728 23.968 34.4365 20.7335 34.4365Z" fill="url(#paint2_radial_80_239)"/>
<path d="M16.3488 21.9544C16.1421 21.9544 15.9265 21.8726 15.7648 21.709C15.0729 21.009 14.2733 20.6453 13.4647 20.6453C12.647 20.6453 11.8564 21.009 11.1645 21.709C10.8411 22.0362 10.32 22.0362 9.9965 21.709C9.67304 21.3817 9.67304 20.8544 9.9965 20.5271C11.0028 19.5181 12.1978 18.9817 13.4647 18.9817C14.7225 18.9817 15.9175 19.5181 16.9328 20.5271C17.2563 20.8544 17.2563 21.3817 16.9328 21.709C16.7711 21.8726 16.5554 21.9544 16.3488 21.9544Z" fill="url(#paint3_linear_80_239)"/>
<path d="M25.1276 21.9544C24.912 21.9544 24.7053 21.8726 24.5436 21.709C24.2202 21.3817 24.2202 20.8544 24.5436 20.5271C25.5499 19.5181 26.7449 18.9817 28.0118 18.9817C29.2697 18.9817 30.4646 19.5181 31.4799 20.5271C31.8034 20.8544 31.8034 21.3817 31.4799 21.709C31.1565 22.0362 30.6354 22.0362 30.3119 21.709C29.6201 21.009 28.8204 20.6453 28.0118 20.6453C27.1942 20.6453 26.4035 21.009 25.7116 21.709C25.5499 21.8726 25.3433 21.9544 25.1276 21.9544Z" fill="url(#paint4_linear_80_239)"/>
<path d="M20.7315 0C12.4869 0 3.60303 1.24972 3.60303 4.00091C3.60303 6.7521 12.4869 8.00182 20.7315 8.00182C28.9761 8.00182 37.873 6.7521 37.873 4.00091C37.873 1.24972 28.9892 0 20.7315 0ZM31.6765 5.45742C28.7674 6.03283 24.8799 6.3565 20.7315 6.3565C16.5831 6.3565 12.6956 6.04182 9.7865 5.45742C6.91654 4.88201 5.99032 4.22568 5.99032 4.00091C5.99032 3.77614 6.91653 3.11981 9.79955 2.5444C12.7086 1.96899 16.5961 1.64532 20.7446 1.64532C24.893 1.64532 28.7805 1.96 31.6896 2.5444C34.5595 3.11981 35.4988 3.76715 35.4988 4.00091C35.4857 4.22568 34.5595 4.88201 31.6765 5.45742Z" fill="url(#paint5_radial_80_239)"/>
<defs>
<radialGradient id="paint0_radial_80_239" cx="0" cy="0" r="1" gradientUnits="userSpaceOnUse" gradientTransform="translate(16.0524 13.588) scale(30.9791 31.3448)">
<stop stop-color="#F7E135"/>
<stop offset="0.5" stop-color="#FCBC27"/>
<stop offset="1" stop-color="#FF7E2C"/>
</radialGradient>
<radialGradient id="paint1_radial_80_239" cx="0" cy="0" r="1" gradientUnits="userSpaceOnUse" gradientTransform="translate(2.99689 -4.36295) scale(34.3212 34.7264)">
<stop stop-color="white"/>
<stop offset="1"/>
</radialGradient>
<radialGradient id="paint2_radial_80_239" cx="0" cy="0" r="1" gradientUnits="userSpaceOnUse" gradientTransform="translate(20.7377 31.9478) scale(6.47341 6.54982)">
<stop stop-color="#372396"/>
<stop offset="1"/>
</radialGradient>
<linearGradient id="paint3_linear_80_239" x1="9.75661" y1="20.4692" x2="17.1708" y2="20.4692" gradientUnits="userSpaceOnUse">
<stop stop-color="#372396"/>
<stop offset="1"/>
</linearGradient>
<linearGradient id="paint4_linear_80_239" x1="24.3052" y1="20.4692" x2="31.7193" y2="20.4692" gradientUnits="userSpaceOnUse">
<stop/>
<stop offset="1" stop-color="#372396"/>
</linearGradient>
<radialGradient id="paint5_radial_80_239" cx="0" cy="0" r="1" gradientUnits="userSpaceOnUse" gradientTransform="translate(20.7975 8.03935) scale(11.9631 8.24498)">
<stop stop-color="#09F5CF"/>
<stop offset="1" stop-color="#00D9FF"/>
</radialGradient>
</defs>
</svg>
