<svg width="174" height="144" viewBox="0 0 174 144" fill="none" xmlns="http://www.w3.org/2000/svg">
<path d="M5 143.6C4.6 143.6 4.1 143.3 4 142.9C2.6 139 1.59999 134.9 0.899994 130.8C0.799994 130.2 1.2 129.7 1.8 129.6C2.4 129.5 2.9 129.9 3 130.5C3.7 134.5 4.7 138.5 6 142.3C6.2 142.9 5.9 143.5 5.3 143.7C5.2 143.6 5.1 143.6 5 143.6ZM1.1 119.4C0.499998 119.4 0 118.9 0 118.3C0.1 114.1 0.499995 109.9 1.3 105.8C1.4 105.2 2 104.8 2.6 105C3.2 105.1 3.59999 105.7 3.39999 106.3C2.59999 110.3 2.2 114.3 2.1 118.4C2.1 118.9 1.6 119.4 1.1 119.4ZM5.8 95.3C5.7 95.3 5.49999 95.3 5.39999 95.2C4.79999 95 4.6 94.4 4.8 93.8C5.9 91.1 7.09999 88.5 8.39999 86C8.99999 84.9 9.69999 83.7 10.4 82.6C10.7 82.1 11.4 81.9 11.9 82.3C12.4 82.6 12.6 83.3 12.2 83.8C11.5 84.9 10.9 86 10.3 87.1C9 89.5 7.8 92.1 6.8 94.7C6.6 95 6.2 95.3 5.8 95.3ZM87.8 93C86.5 93 85.1 92.7 83.7 92C83.2 91.8 82.9 91.1 83.2 90.6C83.4 90 84.1 89.8 84.6 90.1C85.7 90.6 86.8 90.9 87.8 90.9C91 90.9 92.5 88.2 93.1 86.7C93.3 86.1 93.9 85.9 94.5 86.1C95.1 86.3 95.3 86.9 95.1 87.5C93.8 90.9 91.1 93 87.8 93ZM75 84.1C74.7 84.1 74.3 83.9 74.1 83.7C71.7 80.4 69.9 76.5 68.8 72.2C68.6 71.6 69 71 69.6 70.9C70.2 70.7 70.8 71.1 70.9 71.7C72 75.8 73.6 79.4 75.8 82.5C76.1 83 76 83.7 75.6 84C75.4 84 75.2 84.1 75 84.1ZM93.6 76C93.2 76 92.8 75.7 92.6 75.3C91.6 72.7 90 70.4 88 68.5C87.1 67.7 86.3 66.9 85.3 66.2C84.8 65.8 84.7 65.2 85.1 64.7C85.5 64.2 86.1 64.1 86.6 64.5C87.6 65.3 88.5 66 89.4 66.9C91.7 69 93.4 71.5 94.5 74.5C94.7 75.1 94.5 75.7 93.9 75.9C93.8 76 93.7 76 93.6 76ZM18.9 74.5C18.6 74.5 18.4 74.4 18.2 74.2C17.8 73.8 17.8 73.1 18.2 72.7C21.1 69.6 24.3 66.9 27.7 64.5C28.2 64.2 28.9 64.3 29.2 64.8C29.5 65.3 29.4 66 28.9 66.3C25.6 68.6 22.5 71.2 19.7 74.2C19.4 74.4 19.1 74.5 18.9 74.5ZM68.5 60.7C67.8 60.7 67.4 60.2 67.4 59.6C67.4 59.1 67.4 58.6 67.4 58.1C66 57.8 64.6 57.6 63.1 57.4C62.5 57.3 62.1 56.8 62.2 56.2C62.3 55.6 62.8 55.2 63.4 55.3C64.8 55.5 66.2 55.7 67.6 56C67.8 53.1 68.3 50.1 69.1 47.2C69.2 46.6 69.8 46.2 70.4 46.4C71 46.5 71.3 47.1 71.2 47.7C70.5 50.6 70 53.6 69.8 56.5C71.8 57 73.8 57.6 75.7 58.4C76.3 58.6 76.5 59.2 76.3 59.8C76.1 60.4 75.4 60.6 74.9 60.4C73.2 59.7 71.4 59.2 69.6 58.7C69.6 59 69.6 59.4 69.6 59.7C69.5 60.2 69.1 60.7 68.5 60.7ZM39.1 60.6C38.7 60.6 38.3 60.3 38.1 59.9C37.9 59.3 38.1 58.7 38.7 58.5C40.8 57.6 43 56.9 45.2 56.4C47 55.9 48.9 55.6 50.9 55.3C51.5 55.2 52 55.6 52.1 56.2C52.2 56.8 51.8 57.3 51.2 57.4C49.3 57.7 47.5 58 45.8 58.4C43.7 58.9 41.6 59.6 39.6 60.4C39.3 60.6 39.2 60.6 39.1 60.6ZM74.4 36.9C74.2 36.9 74.1 36.9 73.9 36.8C73.4 36.5 73.2 35.9 73.4 35.4C75.5 31.4 77.9 28.1 80.7 25.5C81.1 25.1 82 25 82.4 25.4C82.8 25.8 82.9 26.4 82.5 26.8C79.6 29.5 77.3 32.6 75.4 36.4C75.1 36.7 74.8 36.9 74.4 36.9ZM91.2 19.2C90.9 19.2 90.6 19.1 90.3 18.8C89.9 18.3 90 17.7 90.5 17.3C93.9 14.7 97.4 12.4 100.9 10.4C101.4 10.1 102.1 10.3 102.4 10.8C102.7 11.3 102.5 12 102 12.3C98.6 14.3 95.2 16.5 91.8 19.1C91.6 19.1 91.4 19.2 91.2 19.2ZM171.9 11.9C171.7 11.9 171.5 11.9 171.3 11.7C167.8 9.6 164.1 7.8 160.4 6.4C159.8 6.2 159.6 5.6 159.8 5C160 4.4 160.6 4.1 161.2 4.4C165.1 5.9 168.9 7.7 172.5 9.9C173 10.2 173.2 10.9 172.9 11.4C172.6 11.7 172.2 11.9 171.9 11.9ZM112.5 7C112.1 7 111.7 6.7 111.5 6.3C111.3 5.7 111.5 5.1 112.1 4.9C116.1 3.3 120.1 2.1 124.1 1.3C124.7 1.2 125.2 1.6 125.4 2.1C125.5 2.7 125.1 3.2 124.6 3.4C120.7 4.2 116.8 5.4 113 6.9C112.8 6.9 112.7 7 112.5 7ZM148.9 3.2C145 2.5 141.1 2.2 137.4 2.2H136.7C136.1 2.2 135.6 1.7 135.6 1.1C135.6 0.5 136.1 0 136.7 0H137.4C141.3 0 145.3 0.4 149.2 1.1C149.8 1.2 150.2 1.8 150.1 2.4C149.8 2.8 149.4 3.2 148.9 3.2Z" fill="#FAAF1B"/>
</svg>
