<svg width="64" height="65" viewBox="0 0 64 65" fill="none" xmlns="http://www.w3.org/2000/svg">
<path d="M34.4534 6.52674L51.8134 15.8867C53.8401 16.9801 53.8401 20.1001 51.8134 21.1934L34.4534 30.5534C32.9067 31.3801 31.0934 31.3801 29.5467 30.5534L12.1867 21.1934C10.1601 20.1001 10.1601 16.9801 12.1867 15.8867L29.5467 6.52674C31.0934 5.70007 32.9067 5.70007 34.4534 6.52674Z" stroke="#804DA0" stroke-width="5" stroke-linecap="round" stroke-linejoin="round"/>
<path d="M9.62658 27.5134L25.7599 35.5934C27.7599 36.6067 29.0399 38.6601 29.0399 40.9001V56.1534C29.0399 58.3667 26.7199 59.7801 24.7466 58.7934L8.61325 50.7134C6.61325 49.7001 5.33325 47.6467 5.33325 45.4067V30.1534C5.33325 27.9401 7.65325 26.5267 9.62658 27.5134Z" stroke="#804DA0" stroke-width="5" stroke-linecap="round" stroke-linejoin="round"/>
<path d="M54.3733 27.5134L38.24 35.5934C36.24 36.6067 34.96 38.6601 34.96 40.9001V56.1534C34.96 58.3667 37.28 59.7801 39.2533 58.7934L55.3866 50.7134C57.3866 49.7001 58.6666 47.6467 58.6666 45.4067V30.1534C58.6666 27.9401 56.3466 26.5267 54.3733 27.5134Z" stroke="#804DA0" stroke-width="5" stroke-linecap="round" stroke-linejoin="round"/>
</svg>
