<svg width="64" height="65" viewBox="0 0 64 65" fill="none" xmlns="http://www.w3.org/2000/svg">
<path d="M58.6666 32.4999V24.4999C58.6666 11.1666 53.3333 5.83325 39.9999 5.83325H23.9999C10.6666 5.83325 5.33325 11.1666 5.33325 24.4999V40.4999C5.33325 53.8333 10.6666 59.1666 23.9999 59.1666H31.9999" stroke="#804DA0" stroke-width="5" stroke-linecap="round" stroke-linejoin="round"/>
<path d="M55.8934 48.0732L51.5467 49.5399C50.3467 49.9399 49.3867 50.8732 48.9867 52.0999L47.52 56.4466C46.2667 60.2066 40.9867 60.1266 39.8134 56.3666L34.88 40.4999C33.92 37.3532 36.8267 34.4199 39.9467 35.4066L55.8401 40.3399C59.5734 41.5132 59.6267 46.8199 55.8934 48.0732Z" stroke="#804DA0" stroke-width="5" stroke-linecap="round" stroke-linejoin="round"/>
</svg>
