<svg width="64" height="65" viewBox="0 0 64 65" fill="none" xmlns="http://www.w3.org/2000/svg">
<path d="M5.33325 34.1267H50.6666" stroke="#804DA0" stroke-width="5" stroke-miterlimit="10" stroke-linecap="round" stroke-linejoin="round"/>
<path d="M50.6666 27.9132V46.9799C50.5866 54.5799 48.5065 56.4999 40.5865 56.4999H15.4133C7.36 56.4999 5.33325 54.4999 5.33325 46.5532V27.9132C5.33325 20.7132 7.01325 18.3932 13.3333 18.0199C13.9733 17.9932 14.6667 17.9666 15.4133 17.9666H40.5865C48.6398 17.9666 50.6666 19.9666 50.6666 27.9132Z" stroke="#804DA0" stroke-width="5" stroke-linecap="round" stroke-linejoin="round"/>
<path d="M58.6666 18.4467V37.0867C58.6666 44.2867 56.9866 46.6067 50.6666 46.98V27.9133C50.6666 19.9667 48.6398 17.9667 40.5865 17.9667H15.4133C14.6667 17.9667 13.9733 17.9933 13.3333 18.02C13.4133 10.42 15.4933 8.5 23.4133 8.5H48.5865C56.6398 8.5 58.6666 10.5 58.6666 18.4467Z" stroke="#804DA0" stroke-width="5" stroke-linecap="round" stroke-linejoin="round"/>
<path d="M14 47.9934H18.5866" stroke="#804DA0" stroke-width="5" stroke-miterlimit="10" stroke-linecap="round" stroke-linejoin="round"/>
<path d="M24.2932 47.9934H33.4666" stroke="#804DA0" stroke-width="5" stroke-miterlimit="10" stroke-linecap="round" stroke-linejoin="round"/>
</svg>
