<svg width="64" height="65" viewBox="0 0 64 65" fill="none" xmlns="http://www.w3.org/2000/svg">
<path d="M33.7599 7.21495L33.6799 7.40161L25.9466 25.3483H18.3466C16.5332 25.3483 14.7999 25.7216 13.2266 26.3883L17.8932 15.2416L17.9999 14.9749L18.1866 14.5483C18.2399 14.3883 18.2932 14.2283 18.3732 14.0949C21.8666 6.01495 25.8132 4.17495 33.7599 7.21495Z" stroke="#804DA0" stroke-width="5" stroke-linecap="round" stroke-linejoin="round"/>
<path d="M48.1334 25.8818C46.9334 25.5084 45.6534 25.3484 44.3734 25.3484H25.9468L33.6801 7.40175L33.7601 7.21509C34.1601 7.34842 34.5334 7.53509 34.9334 7.69509L40.8268 10.1751C44.1068 11.5351 46.4001 12.9484 47.7868 14.6551C48.0534 14.9751 48.2668 15.2684 48.4534 15.6151C48.6934 15.9884 48.8801 16.3618 48.9868 16.7618C49.0934 17.0018 49.1734 17.2418 49.2268 17.4551C49.9468 19.6951 49.5201 22.4418 48.1334 25.8818Z" stroke="#804DA0" stroke-width="5" stroke-linecap="round" stroke-linejoin="round"/>
<path d="M57.3912 38.3622V43.5622C57.3912 44.0955 57.3645 44.6289 57.3378 45.1622C56.8312 54.4689 51.6312 59.1622 41.7645 59.1622H20.9645C20.3245 59.1622 19.6845 59.1089 19.0712 59.0289C10.5912 58.4689 6.05784 53.9355 5.49784 45.4555C5.41784 44.8422 5.3645 44.2022 5.3645 43.5622V38.3622C5.3645 33.0022 8.61784 28.3889 13.2578 26.3889C14.8578 25.7222 16.5645 25.3489 18.3778 25.3489H44.4045C45.7112 25.3489 46.9912 25.5355 48.1645 25.8822C53.4712 27.5089 57.3912 32.4689 57.3912 38.3622Z" stroke="#804DA0" stroke-width="5" stroke-linecap="round" stroke-linejoin="round"/>
<path d="M17.8933 15.2417L13.2266 26.3884C8.58658 28.3884 5.33325 33.0017 5.33325 38.3617V30.5484C5.33325 22.975 10.7199 16.655 17.8933 15.2417Z" stroke="#804DA0" stroke-width="5" stroke-linecap="round" stroke-linejoin="round"/>
<path d="M57.3829 30.5472V38.3605C57.3829 32.4938 53.4896 27.5072 48.1562 25.9072C49.5429 22.4405 49.9429 19.7205 49.2763 17.4538C49.2229 17.2138 49.1429 16.9738 49.0362 16.7605C53.9963 19.3205 57.3829 24.5738 57.3829 30.5472Z" stroke="#804DA0" stroke-width="5" stroke-linecap="round" stroke-linejoin="round"/>
</svg>
