<svg width="609" height="707" viewBox="0 0 609 707" fill="none" xmlns="http://www.w3.org/2000/svg">
<path d="M0 476L6.81898e-06 398L78 476L0 476Z" fill="#F4F4F4"/>
<path d="M551 142L551 220L473 142L551 142Z" fill="#F4F4F4"/>
<path d="M632.6 630.015C633.8 664.415 675.1 695.349 699.6 706.515L700.1 237.015C654.6 231.015 537.1 250.015 541.1 337.015C544.3 406.615 607.433 441.015 638.6 449.515C648.1 454.015 667.1 472.515 667.1 510.515C667.1 558.015 631.1 587.015 632.6 630.015Z" fill="#3CB8BB"/>
<path d="M436.1 130.2L445.51 104.77L431.8 119.72L380.39 118.27L436.1 130.2Z" fill="#002C44"/>
<path d="M445.22 141.77C445.22 141.77 434.78 132.76 436.2 129.9L380.88 118.56C380.89 118.56 407.5 137.22 445.22 141.77Z" fill="#3CB8BB"/>
<path d="M445.93 104.28C446.36 103.47 424.96 106.46 424.96 106.46L432.3 120.02C432.3 120.02 442.14 111.37 445.93 104.28Z" fill="#3CB8BB"/>
<path d="M432.3 120.02C432.3 120.02 422.24 103.56 427.87 94L380 118.35C380 118.35 427.21 120.99 432.3 120.02Z" fill="#008F92"/>
<path d="M606 36.8573C605.47 19.2873 590.228 3.2667 572.588 2.07094C554.948 0.875182 537.534 14.9543 535.419 32.4085C534.896 36.748 535.284 41.4024 537.702 45.054C540.12 48.7056 544.957 50.9942 549.089 49.4835C553.745 47.7862 555.789 41.8075 554.23 37.1273C552.665 32.4471 548.365 29.1041 543.742 27.3169C533.945 23.5303 521.995 26.0697 514.617 33.5143C506.314 41.8975 504.458 54.4208 501.322 65.7612C494.448 90.6536 482.848 129.207 445 125.787" stroke="#3CB8BB" stroke-width="3" stroke-miterlimit="10" stroke-linecap="round" stroke-linejoin="round" stroke-dasharray="8 8"/>
</svg>
