<svg width="224" height="142" viewBox="0 0 224 142" fill="none" xmlns="http://www.w3.org/2000/svg">
<path d="M167.9 130.2L158.49 104.77L172.2 119.72L223.61 118.27L167.9 130.2Z" fill="#002C44"/>
<path d="M158.78 141.77C158.78 141.77 169.22 132.76 167.8 129.9L223.12 118.56C223.11 118.56 196.5 137.22 158.78 141.77Z" fill="#FAAF1B"/>
<path d="M158.07 104.28C157.64 103.47 179.04 106.46 179.04 106.46L171.7 120.02C171.7 120.02 161.86 111.37 158.07 104.28Z" fill="#FAAF1B"/>
<path d="M171.7 120.02C171.7 120.02 181.76 103.56 176.13 94L224 118.35C224 118.35 176.79 120.99 171.7 120.02Z" fill="#E59B0A"/>
<path d="M-2 36.8573C-1.46976 19.2873 13.7715 3.2667 31.4118 2.07094C49.0521 0.875182 66.4661 14.9543 68.5806 32.4085C69.1043 36.748 68.7164 41.4024 66.2979 45.054C63.8795 48.7056 59.0427 50.9942 54.9106 49.4835C50.2548 47.7862 48.2115 41.8075 49.7699 37.1273C51.3347 32.4471 55.6349 29.1041 60.2583 27.3169C70.0549 23.5303 82.0048 26.0697 89.3829 33.5143C97.6858 41.8975 99.5416 54.4208 102.678 65.7612C109.552 90.6536 121.152 129.207 159 125.787" stroke="#FAAF1B" stroke-width="3" stroke-miterlimit="10" stroke-linecap="round" stroke-linejoin="round" stroke-dasharray="8 8"/>
</svg>
