<svg width="1440" height="150" viewBox="0 0 1440 150" fill="none" xmlns="http://www.w3.org/2000/svg">
<path d="M1440 13H0C0 20.2811 6.72815 26.3212 13.9519 27.232C19.9111 27.9834 27.667 29.6242 37 33C46.9838 36.6112 62.917 56.2774 57.801 117.13C57.615 119.342 57.7404 121.617 58.2743 123.773C65.3115 152.181 73.2833 149.013 75.5 149C82.1281 148.961 94 148.5 99.5 118.5C103.9 94.5 55.5 34.5 98 36.5C140.5 38.5 108.5 102.5 127.5 102C146.5 101.5 147.609 71 148.5 65C158 1 168.761 35.2747 182 34.5C196.45 33.6544 194 15 221.5 20C249 25 258 37 292.5 31.5C327 26 317.543 68.1544 341 68.5C354.51 68.6991 359.846 42.0612 372.416 37.7645C374.699 36.984 377.154 37.62 379.429 38.422C397.483 44.7834 417.206 48.743 444 29C465 19 458.398 22.8405 481 23C543 49.5 586.5 56 633 33.3321C633 33.3321 658.704 22.9694 675.5 23C690.959 23.0282 725.678 36.9845 742.5 37C760.722 37.0168 767.5 40.5 783.5 33.5C796.097 29.0012 804.241 18.8354 814.852 21.5773C817.361 22.2255 819.365 24.0344 821.175 25.8885C838.169 43.2982 849.27 36.6335 851 35.5C865.5 26 864.65 23.7388 873 24.5C895.169 26.5209 885.542 46.5 884.5 59C883.458 71.5 893.5 80.5 904 79C914.5 77.5 894 48.5 902 33.5C910 18.5 938.226 21.5159 950.5 21.5C963.378 21.4833 988.732 38.0376 1000.5 38C1018.63 37.9421 1058.87 23.1121 1074 23C1093.99 22.8518 1127.16 35.7542 1141 35.5C1163.82 35.0809 1170.09 30.7537 1172.5 30C1194.59 23.0981 1204.82 17.0431 1225.01 31.318C1228.66 33.8997 1233.07 36.5207 1234.14 40.8631C1236.16 49.0611 1236.01 65.3423 1236 80.4003C1236 81.4661 1236.07 82.5336 1236.27 83.5803C1238.89 97.2049 1247.09 103.712 1249 103.5C1252.99 103.057 1262.88 105.758 1268.9 95.2222C1270.58 92.2759 1270.7 88.7471 1270.3 85.3772C1267.26 59.9185 1273.33 51.7842 1283 52.5C1295.05 53.3924 1287 71.5 1305.5 71.5C1324 71.5 1325.48 26.8412 1338 28C1370.22 30.9828 1356 95.5 1353.5 110C1351 124.5 1366.5 125 1373.5 124C1380.5 123 1387.5 117.5 1389 106.5C1390.5 95.5 1378.73 58.7708 1386 38C1391.22 23.0838 1411.9 35.709 1416.5 35.5C1420.99 35.296 1425.73 33.8433 1429.76 32.1949C1436.39 29.4878 1440 22.6681 1440 15.5074V13Z" fill="#FEEFD1"/>
<path d="M1357.25 112.399C1357.62 114.014 1364.63 120.957 1372.16 119.216C1379.7 117.475 1383.93 107.935 1383.55 106.321C1383.18 104.707 1381.53 112.259 1374 114C1366.47 115.741 1356.87 110.785 1357.25 112.399Z" fill="white" fill-opacity="0.16"/>
<path d="M892.463 73.1201C892.697 74.1333 897.097 78.491 901.826 77.3985C906.554 76.3059 904.621 67.1629 904.387 66.1496C904.153 65.1364 904.728 72.9074 900 74C895.272 75.0925 892.229 72.1069 892.463 73.1201Z" fill="white" fill-opacity="0.16"/>
<path d="M1297.44 64.3841C1297.63 65.2162 1302.96 68.3988 1309.37 66.9195C1315.77 65.4401 1314.27 57.9095 1314.08 57.0773C1313.89 56.2451 1313.74 62.7703 1307.34 64.2497C1300.94 65.7291 1297.25 63.5519 1297.44 64.3841Z" fill="white" fill-opacity="0.16"/>
<path d="M65.1803 130.995C65.9213 132.477 77.2349 142.738 84.1505 139.28C91.0662 135.822 91.9268 120.209 91.1858 118.727C90.4448 117.245 91.0662 129.769 84.1505 133.227C77.2349 136.685 64.4393 129.513 65.1803 130.995Z" fill="white" fill-opacity="0.16"/>
<path d="M122.199 90.0743C122.356 91.035 127.222 98.7154 132.144 97.9127C137.066 97.11 140.716 88.4319 140.559 87.4712C140.403 86.5106 138.277 93.6902 133.355 94.4929C128.434 95.2956 122.043 89.1137 122.199 90.0743Z" fill="white" fill-opacity="0.16"/>
<path d="M825.458 26.2203C826.199 27.7022 839.693 37.4578 846.609 33.9998C853.524 30.5419 856.741 25.9818 856 24.4999C855.259 23.018 853.524 27.042 846.609 30.4999C839.693 33.9579 824.717 24.7384 825.458 26.2203Z" fill="white" fill-opacity="0.16"/>
<path d="M739.733 30.9455C740.529 32.3984 766.506 39.0103 775.616 34.017C784.725 29.0237 790.552 24.7664 789.755 23.3135C788.959 21.8606 780.969 26.3028 771.86 31.2961C762.75 36.2895 738.937 29.4926 739.733 30.9455Z" fill="white" fill-opacity="0.16"/>
<path d="M1125.74 24.9324C1126.22 26.7929 1142.25 31.8697 1149.74 29.9323C1154.64 28.6635 1162.66 27.769 1167.96 25.7584C1172.31 24.1087 1170.88 21.0879 1166.35 22.1736C1160.78 23.5096 1153.16 25.7861 1148.74 26.9323C1141.25 28.8697 1125.32 23.3284 1125.74 24.9324Z" fill="white" fill-opacity="0.16"/>
<path d="M1432.95 26.0506C1432.47 27.9111 1422.17 34.4723 1417.8 33.3404C1414.77 32.5559 1409.56 32.5317 1406.58 30.8502C1404.1 29.4476 1405.64 26.8271 1408.42 27.4564C1411.69 28.1945 1416.12 29.6471 1418.71 30.3179C1423.08 31.4498 1433.37 24.4466 1432.95 26.0506Z" fill="white" fill-opacity="0.16"/>
<path d="M393.79 36.6262C394.628 38.3555 411.347 40.1741 418.304 36.8001C422.861 34.5904 430.546 32.1338 435.351 29.1174C439.294 26.6425 437.292 23.9635 433.068 25.9198C427.87 28.3269 420.849 32.0597 416.733 34.0559C409.776 37.4299 393.067 35.1354 393.79 36.6262Z" fill="white" fill-opacity="0.16"/>
<path d="M252.394 23.6863C252.572 25.1858 267.55 30.4727 275.228 29.5599C279.703 29.0278 286.562 28.9288 291.924 28.1047C297.547 27.2405 296.772 24.3582 291.12 25.0065C285.641 25.6349 278.825 26.6358 274.721 27.1238C267.043 28.0367 252.24 22.3935 252.394 23.6863Z" fill="white" fill-opacity="0.16"/>
<path d="M334.803 63.4907C335.822 64.4504 348.567 61.4477 350.212 58.0946C351.1 56.2857 352.663 54.4867 353.452 52.7673C354.715 50.017 351.512 49.2741 350.04 51.9185C348.995 53.7944 347.911 56.0661 347.126 57.6665C345.48 61.0196 331.893 60.7519 334.803 63.4907Z" fill="white" fill-opacity="0.16"/>
<path d="M179.141 32.3392C179.891 33.0453 189.267 30.8362 190.478 28.3693C190.951 27.4042 191.686 26.4429 192.276 25.505C193.886 22.9428 191.176 22.2047 189.78 24.8898C189.202 26.0012 188.642 27.1678 188.207 28.0544C186.996 30.5213 177 30.3243 179.141 32.3392Z" fill="white" fill-opacity="0.16"/>
<path d="M558.438 39.3267C556.774 43.3925 602.562 43.9788 616.503 37.3601C624.683 33.477 633.349 29.3138 639.288 25.7025C644.834 22.3308 643.295 20.0843 637.366 22.7243C629.588 26.1877 618.263 31.4466 608.707 35.2882C592.514 41.7978 560.103 35.2609 558.438 39.3267Z" fill="white" fill-opacity="0.16"/>
<path d="M984.736 27.9324C985.217 29.7929 1001.25 34.8697 1008.74 32.9323C1013.64 31.6635 1021.66 30.769 1026.96 28.7584C1031.31 27.1087 1029.88 24.0879 1025.35 25.1736C1019.78 26.5096 1012.16 28.7861 1007.74 29.9323C1000.25 31.8697 984.321 26.3284 984.736 27.9324Z" fill="white" fill-opacity="0.16"/>
<path d="M1248.6 92.1475C1241.99 89.0588 1241.24 91.4686 1247.42 95.3434C1248.1 95.7707 1248.8 96.1627 1249.5 96.5C1253.89 98.6152 1258.28 98.1087 1261.5 96.5C1263.97 95.2643 1267.27 86.1395 1267 83.5C1266.41 77.769 1262.76 79.3641 1261.76 85.0373C1261.19 88.2504 1259.75 91.623 1257 93C1254.49 94.2555 1251.45 93.4788 1248.6 92.1475Z" fill="white" fill-opacity="0.16"/>
</svg>
