<svg width="1427" height="131" viewBox="0 0 1427 131" fill="none" xmlns="http://www.w3.org/2000/svg">
<path d="M-13 -6.00006H1427C1427 1.28099 1420.27 7.32109 1413.05 8.23197C1407.09 8.98339 1399.33 10.6242 1390 13.9999C1380.02 17.6111 1364.08 37.2774 1369.2 98.1297C1369.39 100.342 1369.26 102.617 1368.73 104.773C1361.69 133.181 1353.72 130.013 1351.5 130C1344.87 129.961 1333 129.5 1327.5 99.4999C1323.1 75.4999 1371.5 15.4999 1329 17.4999C1286.5 19.4999 1318.5 83.4999 1299.5 82.9999C1280.5 82.4999 1279.39 51.9999 1278.5 45.9999C1269 -18.0001 1258.24 16.2746 1245 15.4999C1230.55 14.6544 1233 -4.00006 1205.5 0.999939C1178 5.99994 1169 17.9999 1134.5 12.4999C1100 6.99994 1109.46 49.1543 1086 49.4999C1072.49 49.699 1067.15 23.0611 1054.58 18.7644C1052.3 17.9839 1049.85 18.62 1047.57 19.4219C1029.52 25.7834 1009.79 29.7429 983 9.99994C962 -6.10352e-05 968.602 3.84043 946 3.99994C884 30.4999 840.5 36.9999 794 14.332C794 14.332 768.296 3.96932 751.5 3.99994C736.041 4.02812 701.322 17.9845 684.5 17.9999C666.278 18.0167 659.5 21.4999 643.5 14.4999C630.903 10.0011 622.759 -0.164643 612.148 2.57724C609.639 3.22544 607.635 5.03437 605.825 6.88842C588.831 24.2981 577.73 17.6334 576 16.4999C561.5 6.99994 562.35 4.73871 554 5.49994C531.831 7.52084 541.458 27.4999 542.5 39.9999C543.542 52.4999 533.5 61.4999 523 59.9999C512.5 58.4999 533 29.4999 525 14.4999C517 -0.500061 488.774 2.51582 476.5 2.49994C463.622 2.48327 438.268 19.0375 426.5 18.9999C408.369 18.942 368.128 4.11209 353 3.99994C333.013 3.85178 299.842 16.7541 286 16.4999C263.181 16.0809 256.912 11.7537 254.5 10.9999C232.414 4.09808 222.184 -1.95693 201.989 12.3179C198.337 14.8996 193.931 17.5206 192.859 21.863C190.835 30.061 190.987 46.3423 190.999 61.4003C191 62.466 190.928 63.5335 190.728 64.5802C188.114 78.2049 179.906 84.7117 178 84.4999C174.01 84.0566 164.123 86.7581 158.1 76.2221C156.415 73.2758 156.297 69.747 156.699 66.3771C159.735 40.9184 153.666 32.7841 144 33.4999C131.949 34.3924 140 52.4999 121.5 52.4999C103 52.4999 101.516 7.84113 89 8.99994C56.7847 11.9827 71 76.4999 73.5 90.9999C76 105.5 60.5 106 53.5 105C46.5 104 39.5 98.4999 38 87.4999C36.5 76.4999 48.2661 39.7708 41 18.9999C35.782 4.08374 15.0977 16.7089 10.5 16.4999C6.01163 16.2959 1.27352 14.8432 -2.76325 13.1948C-9.39248 10.4878 -13 3.66799 -13 -3.49264V-6.00006Z" fill="white"/>
<path d="M69.7526 93.3993C69.3796 95.0136 62.3686 101.957 54.8351 100.216C47.3016 98.4753 43.0727 88.9352 43.4457 87.3209C43.8187 85.7066 45.4665 93.2592 53 94.9999C60.5335 96.7406 70.1256 91.785 69.7526 93.3993Z" fill="white" fill-opacity="0.16"/>
<path d="M534.537 54.1201C534.303 55.1333 529.903 59.491 525.174 58.3985C520.446 57.306 522.379 48.1629 522.613 47.1497C522.847 46.1365 522.272 53.9075 527 55C531.728 56.0925 534.771 53.1069 534.537 54.1201Z" fill="white" fill-opacity="0.16"/>
<path d="M129.559 45.384C129.367 46.2162 124.036 49.3988 117.634 47.9194C111.231 46.44 112.728 38.9094 112.92 38.0772C113.112 37.245 113.257 43.7703 119.659 45.2496C126.062 46.729 129.751 44.5518 129.559 45.384Z" fill="white" fill-opacity="0.16"/>
<path d="M1361.82 111.995C1361.08 113.477 1349.77 123.737 1342.85 120.28C1335.93 116.822 1335.07 101.209 1335.81 99.7269C1336.56 98.245 1335.93 110.769 1342.85 114.227C1349.77 117.685 1362.56 110.513 1361.82 111.995Z" fill="white" fill-opacity="0.16"/>
<path d="M1304.8 71.0743C1304.64 72.0349 1299.78 79.7153 1294.86 78.9127C1289.93 78.11 1286.28 69.4318 1286.44 68.4712C1286.6 67.5105 1288.72 74.6902 1293.64 75.4928C1298.57 76.2955 1304.96 70.1136 1304.8 71.0743Z" fill="white" fill-opacity="0.16"/>
<path d="M601.542 7.22031C600.801 8.70223 587.307 18.4578 580.391 14.9998C573.476 11.5419 570.259 6.98184 571 5.49992C571.741 4.018 573.476 8.04197 580.391 11.4999C587.307 14.9579 602.283 5.73838 601.542 7.22031Z" fill="white" fill-opacity="0.16"/>
<path d="M687.267 11.9454C686.471 13.3983 660.494 20.0102 651.384 15.0169C642.275 10.0236 636.448 5.76631 637.245 4.31341C638.041 2.86052 646.031 7.30276 655.14 12.2961C664.25 17.2894 688.063 10.4925 687.267 11.9454Z" fill="white" fill-opacity="0.16"/>
<path d="M301.264 5.93231C300.782 7.79288 284.749 12.8696 277.264 10.9323C272.362 9.66344 264.343 8.76892 259.038 6.75833C254.685 5.10867 256.12 2.08782 260.647 3.17356C266.217 4.50953 273.835 6.78604 278.264 7.93226C285.749 9.86964 301.679 4.32831 301.264 5.93231Z" fill="white" fill-opacity="0.16"/>
<path d="M-5.95077 7.05056C-5.46922 8.91113 4.82851 15.4723 9.20176 14.3404C12.233 13.5559 17.4368 13.5317 20.4175 11.8502C22.9038 10.4476 21.3628 7.82713 18.5785 8.45635C15.312 9.19453 10.8807 10.6471 8.28886 11.3179C3.91561 12.4498 -6.36593 5.44656 -5.95077 7.05056Z" fill="white" fill-opacity="0.16"/>
<path d="M1033.21 17.6262C1032.37 19.3555 1015.65 21.1741 1008.7 17.8001C1004.14 15.5904 996.455 13.1338 991.649 10.1174C987.707 7.64251 989.708 4.96353 993.933 6.91977C999.13 9.32686 1006.15 13.0597 1010.27 15.0559C1017.22 18.4299 1033.93 16.1354 1033.21 17.6262Z" fill="white" fill-opacity="0.16"/>
<path d="M1174.61 4.68627C1174.43 6.18582 1159.45 11.4727 1151.77 10.5599C1147.3 10.0278 1140.44 9.92882 1135.08 9.10466C1129.45 8.24046 1130.23 5.35819 1135.88 6.00648C1141.36 6.6349 1148.17 7.6358 1152.28 8.12382C1159.96 9.03672 1174.76 3.39351 1174.61 4.68627Z" fill="white" fill-opacity="0.16"/>
<path d="M1092.2 44.4906C1091.18 45.4503 1078.43 42.4476 1076.79 39.0945C1075.9 37.2856 1074.34 35.4867 1073.55 33.7672C1072.28 31.0169 1075.49 30.2741 1076.96 32.9184C1078 34.7943 1079.09 37.066 1079.87 38.6664C1081.52 42.0195 1095.11 41.7518 1092.2 44.4906Z" fill="white" fill-opacity="0.16"/>
<path d="M1247.86 13.3392C1247.11 14.0453 1237.73 11.8362 1236.52 9.36934C1236.05 8.40419 1235.31 7.4429 1234.72 6.50497C1233.11 3.94276 1235.82 3.20466 1237.22 5.88978C1237.8 7.00123 1238.36 8.16782 1238.79 9.05439C1240 11.5213 1250 11.3243 1247.86 13.3392Z" fill="white" fill-opacity="0.16"/>
<path d="M868.562 20.3267C870.226 24.3925 824.438 24.9788 810.497 18.3601C802.317 14.477 793.651 10.3138 787.712 6.70246C782.166 3.33081 783.705 1.08435 789.634 3.72431C797.412 7.18772 808.737 12.4466 818.293 16.2882C834.486 22.7978 866.897 16.2609 868.562 20.3267Z" fill="white" fill-opacity="0.16"/>
<path d="M442.264 8.93237C441.782 10.7929 425.749 15.8697 418.264 13.9323C413.362 12.6635 405.343 11.769 400.038 9.75839C395.685 8.10873 397.12 5.08788 401.647 6.17362C407.217 7.50959 414.835 9.7861 419.264 10.9323C426.749 12.8697 442.679 7.32837 442.264 8.93237Z" fill="white" fill-opacity="0.16"/>
<path d="M178.397 73.1475C185.008 70.0588 185.761 72.4686 179.578 76.3434C178.896 76.7707 178.2 77.1627 177.5 77.5C173.111 79.6152 168.717 79.1087 165.5 77.5C163.029 76.2643 159.727 67.1395 160 64.5C160.592 58.769 164.239 60.3641 165.244 66.0373C165.813 69.2504 167.246 72.623 170 74C172.511 75.2555 175.547 74.4788 178.397 73.1475Z" fill="white" fill-opacity="0.16"/>
</svg>
