<svg width="1437" height="131" viewBox="0 0 1437 131" fill="none" xmlns="http://www.w3.org/2000/svg">
<path d="M-3 -6.00003H1437C1437 1.28102 1430.27 7.32113 1423.05 8.232C1417.09 8.98342 1409.33 10.6242 1400 14C1390.02 17.6111 1374.08 37.2774 1379.2 98.1298C1379.39 100.342 1379.26 102.617 1378.73 104.773C1371.69 133.181 1363.72 130.013 1361.5 130C1354.87 129.961 1343 129.5 1337.5 99.5C1333.1 75.5 1381.5 15.5 1339 17.5C1296.5 19.5 1328.5 83.5 1309.5 83C1290.5 82.5 1289.39 52 1288.5 46C1279 -18 1268.24 16.2746 1255 15.5C1240.55 14.6544 1243 -4.00003 1215.5 0.999969C1188 5.99997 1179 18 1144.5 12.5C1110 6.99997 1119.46 49.1543 1096 49.5C1082.49 49.699 1077.15 23.0611 1064.58 18.7645C1062.3 17.984 1059.85 18.62 1057.57 19.4219C1039.52 25.7834 1019.79 29.743 993 9.99997C972 -3.05176e-05 978.602 3.84046 956 3.99997C894 30.5 850.5 37 804 14.3321C804 14.3321 778.296 3.96935 761.5 3.99997C746.041 4.02815 711.322 17.9845 694.5 18C676.278 18.0167 669.5 21.5 653.5 14.5C640.903 10.0012 632.759 -0.164612 622.148 2.57728C619.639 3.22547 617.635 5.0344 615.825 6.88845C598.831 24.2981 587.73 17.6334 586 16.5C571.5 6.99997 572.35 4.73874 564 5.49997C541.831 7.52087 551.458 27.5 552.5 40C553.542 52.5 543.5 61.5 533 60C522.5 58.5 543 29.5 535 14.5C527 -0.500031 498.774 2.51585 486.5 2.49997C473.622 2.4833 448.268 19.0375 436.5 19C418.369 18.9421 378.128 4.11212 363 3.99997C343.013 3.85181 309.842 16.7542 296 16.5C273.181 16.0809 266.912 11.7537 264.5 11C242.414 4.09811 232.184 -1.9569 211.989 12.3179C208.337 14.8997 203.931 17.5206 202.859 21.8631C200.835 30.061 200.987 46.3423 200.999 61.4003C201 62.4661 200.928 63.5335 200.728 64.5802C198.114 78.2049 189.906 84.7118 188 84.5C184.01 84.0566 174.123 86.7581 168.1 76.2221C166.415 73.2759 166.297 69.7471 166.699 66.3772C169.735 40.9184 163.666 32.7841 154 33.5C141.949 34.3924 150 52.5 131.5 52.5C113 52.5 111.516 7.84116 99 8.99997C66.7847 11.9828 81 76.5 83.5 91C86 105.5 70.5 106 63.5 105C56.5 104 49.5 98.5 48 87.5C46.5 76.5 58.2661 39.7708 51 19C45.782 4.08377 25.0977 16.709 20.5 16.5C16.0116 16.296 11.2735 14.8432 7.23675 13.1948C0.607524 10.4878 -3 3.66802 -3 -3.49261V-6.00003Z" fill="white"/>
<path d="M79.7526 93.3993C79.3796 95.0137 72.3686 101.957 64.8351 100.216C57.3016 98.4753 53.0727 88.9352 53.4457 87.3209C53.8187 85.7066 55.4665 93.2593 63 95C70.5335 96.7406 80.1256 91.785 79.7526 93.3993Z" fill="white" fill-opacity="0.16"/>
<path d="M544.537 54.1201C544.303 55.1333 539.903 59.491 535.174 58.3985C530.446 57.306 532.379 48.1629 532.613 47.1497C532.847 46.1365 532.272 53.9075 537 55C541.728 56.0925 544.771 53.1069 544.537 54.1201Z" fill="white" fill-opacity="0.16"/>
<path d="M139.559 45.384C139.367 46.2162 134.036 49.3988 127.634 47.9194C121.231 46.44 122.728 38.9094 122.92 38.0773C123.112 37.2451 123.257 43.7703 129.659 45.2497C136.062 46.7291 139.751 44.5518 139.559 45.384Z" fill="white" fill-opacity="0.16"/>
<path d="M1371.82 111.995C1371.08 113.477 1359.77 123.737 1352.85 120.28C1345.93 116.822 1345.07 101.209 1345.81 99.7269C1346.56 98.245 1345.93 110.769 1352.85 114.227C1359.77 117.685 1372.56 110.513 1371.82 111.995Z" fill="white" fill-opacity="0.16"/>
<path d="M1314.8 71.0743C1314.64 72.035 1309.78 79.7154 1304.86 78.9127C1299.93 78.11 1296.28 69.4319 1296.44 68.4712C1296.6 67.5106 1298.72 74.6902 1303.64 75.4929C1308.57 76.2955 1314.96 70.1137 1314.8 71.0743Z" fill="white" fill-opacity="0.16"/>
<path d="M611.542 7.22034C610.801 8.70226 597.307 18.4578 590.391 14.9998C583.476 11.5419 580.259 6.98187 581 5.49995C581.741 4.01803 583.476 8.042 590.391 11.5C597.307 14.9579 612.283 5.73841 611.542 7.22034Z" fill="white" fill-opacity="0.16"/>
<path d="M697.267 11.9454C696.471 13.3983 670.494 20.0103 661.384 15.0169C652.275 10.0236 646.448 5.76634 647.245 4.31344C648.041 2.86055 656.031 7.30279 665.14 12.2961C674.25 17.2894 698.063 10.4925 697.267 11.9454Z" fill="white" fill-opacity="0.16"/>
<path d="M311.264 5.93234C310.782 7.79291 294.749 12.8697 287.264 10.9323C282.362 9.66347 274.343 8.76895 269.038 6.75836C264.685 5.1087 266.12 2.08785 270.647 3.17359C276.217 4.50956 283.835 6.78607 288.264 7.93229C295.749 9.86967 311.679 4.32834 311.264 5.93234Z" fill="white" fill-opacity="0.16"/>
<path d="M4.04923 7.05053C4.53078 8.9111 14.8285 15.4723 19.2018 14.3404C22.233 13.5559 27.4368 13.5316 30.4175 11.8502C32.9038 10.4476 31.3628 7.8271 28.5785 8.45632C25.312 9.1945 20.8807 10.647 18.2889 11.3179C13.9156 12.4498 3.63407 5.44653 4.04923 7.05053Z" fill="white" fill-opacity="0.16"/>
<path d="M1043.21 17.6262C1042.37 19.3554 1025.65 21.1741 1018.7 17.8001C1014.14 15.5904 1006.45 13.1337 1001.65 10.1174C997.706 7.64248 999.708 4.9635 1003.93 6.91974C1009.13 9.32683 1016.15 13.0597 1020.27 15.0559C1027.22 18.4299 1043.93 16.1354 1043.21 17.6262Z" fill="white" fill-opacity="0.16"/>
<path d="M1184.61 4.68624C1184.43 6.18579 1169.45 11.4727 1161.77 10.5598C1157.3 10.0277 1150.44 9.92879 1145.08 9.10463C1139.45 8.24043 1140.23 5.35816 1145.88 6.00645C1151.36 6.63487 1158.17 7.63577 1162.28 8.12379C1169.96 9.03669 1184.76 3.39348 1184.61 4.68624Z" fill="white" fill-opacity="0.16"/>
<path d="M1102.2 44.4907C1101.18 45.4503 1088.43 42.4476 1086.79 39.0946C1085.9 37.2856 1084.34 35.4867 1083.55 33.7672C1082.28 31.0169 1085.49 30.2741 1086.96 32.9184C1088 34.7944 1089.09 37.0661 1089.87 38.6665C1091.52 42.0196 1105.11 41.7519 1102.2 44.4907Z" fill="white" fill-opacity="0.16"/>
<path d="M1257.86 13.3392C1257.11 14.0452 1247.73 11.8362 1246.52 9.36931C1246.05 8.40416 1245.31 7.44287 1244.72 6.50494C1243.11 3.94273 1245.82 3.20463 1247.22 5.88975C1247.8 7.0012 1248.36 8.16779 1248.79 9.05436C1250 11.5212 1260 11.3243 1257.86 13.3392Z" fill="white" fill-opacity="0.16"/>
<path d="M878.562 20.3267C880.226 24.3925 834.438 24.9788 820.497 18.3601C812.317 14.477 803.651 10.3138 797.712 6.70246C792.166 3.33081 793.705 1.08435 799.634 3.72431C807.412 7.18772 818.737 12.4466 828.293 16.2882C844.486 22.7978 876.897 16.2609 878.562 20.3267Z" fill="white" fill-opacity="0.16"/>
<path d="M452.264 8.93234C451.782 10.7929 435.749 15.8697 428.264 13.9323C423.362 12.6635 415.343 11.769 410.038 9.75836C405.685 8.1087 407.12 5.08785 411.647 6.17359C417.217 7.50956 424.835 9.78607 429.264 10.9323C436.749 12.8697 452.679 7.32834 452.264 8.93234Z" fill="white" fill-opacity="0.16"/>
<path d="M188.397 73.1475C195.008 70.0588 195.761 72.4686 189.578 76.3434C188.896 76.7707 188.2 77.1628 187.5 77.5C183.111 79.6152 178.717 79.1087 175.5 77.5C173.029 76.2643 169.727 67.1395 170 64.5001C170.592 58.7691 174.239 60.3641 175.244 66.0373C175.813 69.2504 177.246 72.623 180 74C182.511 75.2555 185.547 74.4789 188.397 73.1475Z" fill="white" fill-opacity="0.16"/>
</svg>
