<svg width="64" height="64" viewBox="0 0 64 64" fill="none" xmlns="http://www.w3.org/2000/svg">
<path d="M26.9601 29.7334H19.8935C18.2135 29.7334 16.8535 31.0933 16.8535 32.7733V46.4266H26.9601V29.7334V29.7334Z" stroke="#FAAF1B" stroke-width="4" stroke-miterlimit="10" stroke-linecap="round" stroke-linejoin="round"/>
<path d="M34.0304 17.5999H29.977C28.297 17.5999 26.937 18.9599 26.937 20.6399V46.4H37.0437V20.6399C37.0437 18.9599 35.7104 17.5999 34.0304 17.5999Z" stroke="#FAAF1B" stroke-width="4" stroke-miterlimit="10" stroke-linecap="round" stroke-linejoin="round"/>
<path d="M44.1287 34.2666H37.062V46.4001H47.1687V37.3066C47.142 35.6266 45.782 34.2666 44.1287 34.2666Z" stroke="#FAAF1B" stroke-width="4" stroke-miterlimit="10" stroke-linecap="round" stroke-linejoin="round"/>
<path d="M24.0002 58.6666H40.0002C53.3335 58.6666 58.6668 53.3332 58.6668 39.9999V23.9999C58.6668 10.6666 53.3335 5.33325 40.0002 5.33325H24.0002C10.6668 5.33325 5.3335 10.6666 5.3335 23.9999V39.9999C5.3335 53.3332 10.6668 58.6666 24.0002 58.6666Z" stroke="#FAAF1B" stroke-width="4" stroke-linecap="round" stroke-linejoin="round"/>
</svg>
