<svg width="64" height="64" viewBox="0 0 64 64" fill="none" xmlns="http://www.w3.org/2000/svg">
<path d="M25.7334 36.8001L30.0267 40.1334C30.5867 40.6934 31.8401 40.9599 32.6667 40.9599H37.9467C39.6001 40.9599 41.4134 39.7067 41.8401 38.0533L45.1734 27.9466C45.8668 25.9999 44.6134 24.3466 42.5334 24.3466H36.9867C36.1601 24.3466 35.4668 23.6533 35.6001 22.6933L36.2934 18.2666C36.5601 17.0132 35.7334 15.6265 34.4801 15.2265C33.3601 14.7999 31.9734 15.3598 31.4401 16.1865L25.7601 24.6399" stroke="#FAAF1B" stroke-width="4" stroke-miterlimit="10"/>
<path d="M18.6667 36.8002V23.2266C18.6667 21.28 19.4934 20.5867 21.4401 20.5867H22.8267C24.7734 20.5867 25.6001 21.28 25.6001 23.2266V36.8002C25.6001 38.7469 24.7734 39.4402 22.8267 39.4402H21.4401C19.4934 39.4402 18.6667 38.7469 18.6667 36.8002Z" stroke="#FAAF1B" stroke-width="4" stroke-linecap="round" stroke-linejoin="round"/>
<path d="M48 50.2934H45.9733C43.84 50.2934 41.8133 51.12 40.32 52.6134L35.76 57.1202C33.68 59.1735 30.2933 59.1735 28.2133 57.1202L23.6533 52.6134C22.16 51.12 20.1067 50.2934 18 50.2934H16C11.5733 50.2934 8 46.7468 8 42.3735V13.28C8 8.9067 11.5733 5.36011 16 5.36011H48C52.4267 5.36011 56 8.9067 56 13.28V42.3735C56 46.7201 52.4267 50.2934 48 50.2934Z" stroke="#FAAF1B" stroke-width="4" stroke-miterlimit="10" stroke-linecap="round" stroke-linejoin="round"/>
</svg>
