<svg width="64" height="64" viewBox="0 0 64 64" fill="none" xmlns="http://www.w3.org/2000/svg">
<path d="M23.9999 58.6666H39.9999C53.3332 58.6666 58.6666 53.3332 58.6666 39.9999V23.9999C58.6666 10.6666 53.3332 5.33325 39.9999 5.33325H23.9999C10.6666 5.33325 5.33325 10.6666 5.33325 23.9999V39.9999C5.33325 53.3332 10.6666 58.6666 23.9999 58.6666Z" stroke="#FAAF1B" stroke-width="4" stroke-linecap="round" stroke-linejoin="round"/>
<path d="M41.52 49.3333V38.9333" stroke="#FAAF1B" stroke-width="4" stroke-miterlimit="10" stroke-linecap="round" stroke-linejoin="round"/>
<path d="M41.52 19.8667V14.6667" stroke="#FAAF1B" stroke-width="4" stroke-miterlimit="10" stroke-linecap="round" stroke-linejoin="round"/>
<path d="M41.52 33.7334C45.3492 33.7334 48.4533 30.6292 48.4533 26.8C48.4533 22.9709 45.3492 19.8667 41.52 19.8667C37.6908 19.8667 34.5867 22.9709 34.5867 26.8C34.5867 30.6292 37.6908 33.7334 41.52 33.7334Z" stroke="#FAAF1B" stroke-width="4" stroke-miterlimit="10" stroke-linecap="round" stroke-linejoin="round"/>
<path d="M22.48 49.3333V44.1333" stroke="#FAAF1B" stroke-width="4" stroke-miterlimit="10" stroke-linecap="round" stroke-linejoin="round"/>
<path d="M22.48 25.0667V14.6667" stroke="#FAAF1B" stroke-width="4" stroke-miterlimit="10" stroke-linecap="round" stroke-linejoin="round"/>
<path d="M22.48 44.1333C26.3091 44.1333 29.4133 41.0291 29.4133 37.1999C29.4133 33.3708 26.3091 30.2666 22.48 30.2666C18.6508 30.2666 15.5466 33.3708 15.5466 37.1999C15.5466 41.0291 18.6508 44.1333 22.48 44.1333Z" stroke="#FAAF1B" stroke-width="4" stroke-miterlimit="10" stroke-linecap="round" stroke-linejoin="round"/>
</svg>
