<svg width="64" height="64" viewBox="0 0 64 64" fill="none" xmlns="http://www.w3.org/2000/svg">
<path d="M56.2131 22.88V41.1199C56.2131 44.1066 54.6131 46.88 52.0264 48.4L36.1864 57.5467C33.5998 59.04 30.3998 59.04 27.7864 57.5467L11.9464 48.4C9.35977 46.9067 7.75977 44.1332 7.75977 41.1199V22.88C7.75977 19.8933 9.35977 17.1199 11.9464 15.5999L27.7864 6.45325C30.3731 4.95992 33.5731 4.95992 36.1864 6.45325L52.0264 15.5999C54.6131 17.1199 56.2131 19.8667 56.2131 22.88Z" stroke="#FAAF1B" stroke-width="4" stroke-linecap="round" stroke-linejoin="round"/>
<path d="M32 29.3333C35.4315 29.3333 38.2133 26.5515 38.2133 23.12C38.2133 19.6884 35.4315 16.9067 32 16.9067C28.5684 16.9067 25.7866 19.6884 25.7866 23.12C25.7866 26.5515 28.5684 29.3333 32 29.3333Z" stroke="#FAAF1B" stroke-width="4" stroke-linecap="round" stroke-linejoin="round"/>
<path d="M42.6668 44.4266C42.6668 39.6266 37.8935 35.7334 32.0002 35.7334C26.1068 35.7334 21.3335 39.6266 21.3335 44.4266" stroke="#FAAF1B" stroke-width="4" stroke-linecap="round" stroke-linejoin="round"/>
</svg>
